<?xml version="1.0" encoding="UTF-8" standalone="no"?><svg xmlns="http://www.w3.org/2000/svg" xmlns:xlink="http://www.w3.org/1999/xlink" clip-rule="evenodd" stroke-miterlimit="4.00" viewBox="0 0 1024 768"><desc>SVG generated by Keynote</desc><defs></defs><g transform="matrix(1.00, 0.00, -0.00, -1.00, 0.0, 768.0)"><path d="M 0.0 768.0 L 1024.0 768.0 L 1024.0 0.0 L 0.0 0.0 Z M 0.0 768.0 " fill="#FEFFFF"></path><image xlink:href="../../046F6F4C-FF2B-4718-8F9E-5FA264608D0E/assets/C806FBE2F074D954EB0BDD8E014F7497.png" width="961.00" height="482.00" transform="matrix(1.07, 0.00, -0.00, -1.07, -1.0, 721.0)"></image><text xml:space="preserve" font-family="BebasNeue" font-size="70.4" fill="#000000" transform="matrix(1.00, 0.00, -0.00, -1.00, 106.0, 89.0)">H</text><text xml:space="preserve" font-family="BebasNeue" font-size="70.4" fill="#000000" transform="matrix(1.00, 0.00, -0.00, -1.00, 136.1, 89.0)">a</text><text xml:space="preserve" font-family="BebasNeue" font-size="70.4" fill="#000000" transform="matrix(1.00, 0.00, -0.00, -1.00, 164.7, 89.0)">b</text><text xml:space="preserve" font-family="BebasNeue" font-size="70.4" fill="#000000" transform="matrix(1.00, 0.00, -0.00, -1.00, 193.3, 89.0)">i</text><text xml:space="preserve" font-family="BebasNeue" font-size="70.4" fill="#000000" transform="matrix(1.00, 0.00, -0.00, -1.00, 206.7, 89.0)">t</text><text xml:space="preserve" font-family="BebasNeue" font-size="70.4" fill="#000000" transform="matrix(1.00, 0.00, -0.00, -1.00, 227.5, 89.0)">.</text><text xml:space="preserve" font-family="BebasNeue" font-size="70.4" fill="#000000" transform="matrix(1.00, 0.00, -0.00, -1.00, 240.6, 89.0)">A</text><text xml:space="preserve" font-family="BebasNeue" font-size="70.4" fill="#000000" transform="matrix(1.00, 0.00, -0.00, -1.00, 269.3, 89.0)">I</text><text xml:space="preserve" font-family="BebasNeue" font-size="70.4" fill="#000000" transform="matrix(1.00, 0.00, -0.00, -1.00, 282.6, 89.0)"> </text><text xml:space="preserve" font-family="BebasNeue" font-size="70.4" fill="#000000" transform="matrix(1.00, 0.00, -0.00, -1.00, 293.5, 89.0)">-</text><text xml:space="preserve" font-family="BebasNeue" font-size="70.4" fill="#000000" transform="matrix(1.00, 0.00, -0.00, -1.00, 312.6, 89.0)"> </text><text xml:space="preserve" font-family="BebasNeue" font-size="70.4" fill="#000000" transform="matrix(1.00, 0.00, -0.00, -1.00, 323.5, 89.0)">G</text><text xml:space="preserve" font-family="BebasNeue" font-size="70.4" fill="#000000" transform="matrix(1.00, 0.00, -0.00, -1.00, 350.9, 89.0)">o</text><text xml:space="preserve" font-family="BebasNeue" font-size="70.4" fill="#000000" transform="matrix(1.00, 0.00, -0.00, -1.00, 378.8, 89.0)">o</text><text xml:space="preserve" font-family="BebasNeue" font-size="70.4" fill="#000000" transform="matrix(1.00, 0.00, -0.00, -1.00, 406.7, 89.0)">d</text><text xml:space="preserve" font-family="BebasNeue" font-size="70.4" fill="#000000" transform="matrix(1.00, 0.00, -0.00, -1.00, 435.4, 89.0)"> </text><text xml:space="preserve" font-family="BebasNeue" font-size="70.4" fill="#000000" transform="matrix(1.00, 0.00, -0.00, -1.00, 446.3, 89.0)">h</text><text xml:space="preserve" font-family="BebasNeue" font-size="70.4" fill="#000000" transform="matrix(1.00, 0.00, -0.00, -1.00, 476.4, 89.0)">a</text><text xml:space="preserve" font-family="BebasNeue" font-size="70.4" fill="#000000" transform="matrix(1.00, 0.00, -0.00, -1.00, 505.0, 89.0)">b</text><text xml:space="preserve" font-family="BebasNeue" font-size="70.4" fill="#000000" transform="matrix(1.00, 0.00, -0.00, -1.00, 533.6, 89.0)">i</text><text xml:space="preserve" font-family="BebasNeue" font-size="70.4" fill="#000000" transform="matrix(1.00, 0.00, -0.00, -1.00, 547.0, 89.0)">t</text><text xml:space="preserve" font-family="BebasNeue" font-size="70.4" fill="#000000" transform="matrix(1.00, 0.00, -0.00, -1.00, 572.0, 89.0)">s</text><text xml:space="preserve" font-family="BebasNeue" font-size="70.4" fill="#000000" transform="matrix(1.00, 0.00, -0.00, -1.00, 598.4, 89.0)"> </text><text xml:space="preserve" font-family="BebasNeue" font-size="70.4" fill="#000000" transform="matrix(1.00, 0.00, -0.00, -1.00, 609.3, 89.0)">f</text><text xml:space="preserve" font-family="BebasNeue" font-size="70.4" fill="#000000" transform="matrix(1.00, 0.00, -0.00, -1.00, 633.5, 89.0)">o</text><text xml:space="preserve" font-family="BebasNeue" font-size="70.4" fill="#000000" transform="matrix(1.00, 0.00, -0.00, -1.00, 661.4, 89.0)">r</text><text xml:space="preserve" font-family="BebasNeue" font-size="70.4" fill="#000000" transform="matrix(1.00, 0.00, -0.00, -1.00, 689.7, 89.0)"> </text><text xml:space="preserve" font-family="BebasNeue" font-size="70.4" fill="#000000" transform="matrix(1.00, 0.00, -0.00, -1.00, 700.6, 89.0)">e</text><text xml:space="preserve" font-family="BebasNeue" font-size="70.4" fill="#000000" transform="matrix(1.00, 0.00, -0.00, -1.00, 726.5, 89.0)">v</text><text xml:space="preserve" font-family="BebasNeue" font-size="70.4" fill="#000000" transform="matrix(1.00, 0.00, -0.00, -1.00, 754.8, 89.0)">e</text><text xml:space="preserve" font-family="BebasNeue" font-size="70.4" fill="#000000" transform="matrix(1.00, 0.00, -0.00, -1.00, 780.7, 89.0)">r</text><text xml:space="preserve" font-family="BebasNeue" font-size="70.4" fill="#000000" transform="matrix(1.00, 0.00, -0.00, -1.00, 808.3, 89.0)">y</text><text xml:space="preserve" font-family="BebasNeue" font-size="70.4" fill="#000000" transform="matrix(1.00, 0.00, -0.00, -1.00, 835.1, 89.0)">o</text><text xml:space="preserve" font-family="BebasNeue" font-size="70.4" fill="#000000" transform="matrix(1.00, 0.00, -0.00, -1.00, 863.0, 89.0)">n</text><text xml:space="preserve" font-family="BebasNeue" font-size="70.4" fill="#000000" transform="matrix(1.00, 0.00, -0.00, -1.00, 893.1, 89.0)">e</text></g></svg>