<?xml version="1.0" encoding="UTF-8" standalone="no"?><svg xmlns="http://www.w3.org/2000/svg" xmlns:xlink="http://www.w3.org/1999/xlink" clip-rule="evenodd" stroke-miterlimit="4.00" viewBox="0 0 1024 768"><desc>SVG generated by Keynote</desc><defs></defs><g transform="matrix(1.00, 0.00, -0.00, -1.00, 0.0, 768.0)"><path d="M 0.0 768.0 L 1024.0 768.0 L 1024.0 0.0 L 0.0 0.0 Z M 0.0 768.0 " fill="#FEFFFF"></path><path d="M 232.5 405.8 L 799.7 405.8 L 799.7 330.8 L 232.5 330.8 Z M 232.5 405.8 " fill="#88B04B"></path><text xml:space="preserve" font-family="BebasNeue" font-size="146.0" fill="#000000" transform="matrix(1.00, 0.00, -0.00, -1.00, 329.0, 472.0)">h</text><text xml:space="preserve" font-family="BebasNeue" font-size="146.0" fill="#000000" transform="matrix(1.00, 0.00, -0.00, -1.00, 391.3, 472.0)">a</text><text xml:space="preserve" font-family="BebasNeue" font-size="146.0" fill="#000000" transform="matrix(1.00, 0.00, -0.00, -1.00, 450.8, 472.0)">b</text><text xml:space="preserve" font-family="BebasNeue" font-size="146.0" fill="#000000" transform="matrix(1.00, 0.00, -0.00, -1.00, 510.0, 472.0)">i</text><text xml:space="preserve" font-family="BebasNeue" font-size="146.0" fill="#000000" transform="matrix(1.00, 0.00, -0.00, -1.00, 537.8, 472.0)">t</text><text xml:space="preserve" font-family="BebasNeue" font-size="146.0" fill="#000000" transform="matrix(1.00, 0.00, -0.00, -1.00, 581.0, 472.0)">.</text><text xml:space="preserve" font-family="BebasNeue" font-size="146.0" fill="#000000" transform="matrix(1.00, 0.00, -0.00, -1.00, 608.2, 472.0)">a</text><text xml:space="preserve" font-family="BebasNeue" font-size="146.0" fill="#000000" transform="matrix(1.00, 0.00, -0.00, -1.00, 667.6, 472.0)">i</text><text xml:space="preserve" font-family="Lato-Regular" font-size="56.0" fill="#000000" transform="matrix(1.00, 0.00, -0.00, -1.00, 237.0, 347.0)">M</text><text xml:space="preserve" font-family="Lato-Regular" font-size="56.0" fill="#000000" transform="matrix(1.00, 0.00, -0.00, -1.00, 288.5, 347.0)">a</text><text xml:space="preserve" font-family="Lato-Regular" font-size="56.0" fill="#000000" transform="matrix(1.00, 0.00, -0.00, -1.00, 316.9, 347.0)">k</text><text xml:space="preserve" font-family="Lato-Regular" font-size="56.0" fill="#000000" transform="matrix(1.00, 0.00, -0.00, -1.00, 346.3, 347.0)">i</text><text xml:space="preserve" font-family="Lato-Regular" font-size="56.0" fill="#000000" transform="matrix(1.00, 0.00, -0.00, -1.00, 360.6, 347.0)">n</text><text xml:space="preserve" font-family="Lato-Regular" font-size="56.0" fill="#000000" transform="matrix(1.00, 0.00, -0.00, -1.00, 391.7, 347.0)">g</text><text xml:space="preserve" font-family="Lato-Regular" font-size="56.0" fill="#000000" transform="matrix(1.00, 0.00, -0.00, -1.00, 420.3, 347.0)"> </text><text xml:space="preserve" font-family="Lato-Regular" font-size="56.0" fill="#000000" transform="matrix(1.00, 0.00, -0.00, -1.00, 431.2, 347.0)">h</text><text xml:space="preserve" font-family="Lato-Regular" font-size="56.0" fill="#000000" transform="matrix(1.00, 0.00, -0.00, -1.00, 462.3, 347.0)">a</text><text xml:space="preserve" font-family="Lato-Regular" font-size="56.0" fill="#000000" transform="matrix(1.00, 0.00, -0.00, -1.00, 490.7, 347.0)">b</text><text xml:space="preserve" font-family="Lato-Regular" font-size="56.0" fill="#000000" transform="matrix(1.00, 0.00, -0.00, -1.00, 522.0, 347.0)">i</text><text xml:space="preserve" font-family="Lato-Regular" font-size="56.0" fill="#000000" transform="matrix(1.00, 0.00, -0.00, -1.00, 536.3, 347.0)">t</text><text xml:space="preserve" font-family="Lato-Regular" font-size="56.0" fill="#000000" transform="matrix(1.00, 0.00, -0.00, -1.00, 557.2, 347.0)">s</text><text xml:space="preserve" font-family="Lato-Regular" font-size="56.0" fill="#000000" transform="matrix(1.00, 0.00, -0.00, -1.00, 581.5, 347.0)"> </text><text xml:space="preserve" font-family="Lato-Regular" font-size="56.0" fill="#000000" transform="matrix(1.00, 0.00, -0.00, -1.00, 592.3, 347.0)">s</text><text xml:space="preserve" font-family="Lato-Regular" font-size="56.0" fill="#000000" transform="matrix(1.00, 0.00, -0.00, -1.00, 616.6, 347.0)">m</text><text xml:space="preserve" font-family="Lato-Regular" font-size="56.0" fill="#000000" transform="matrix(1.00, 0.00, -0.00, -1.00, 662.6, 347.0)">a</text><text xml:space="preserve" font-family="Lato-Regular" font-size="56.0" fill="#000000" transform="matrix(1.00, 0.00, -0.00, -1.00, 691.0, 347.0)">r</text><text xml:space="preserve" font-family="Lato-Regular" font-size="56.0" fill="#000000" transform="matrix(1.00, 0.00, -0.00, -1.00, 713.6, 347.0)">t</text><text xml:space="preserve" font-family="Lato-Regular" font-size="56.0" fill="#000000" transform="matrix(1.00, 0.00, -0.00, -1.00, 734.4, 347.0)">e</text><text xml:space="preserve" font-family="Lato-Regular" font-size="56.0" fill="#000000" transform="matrix(1.00, 0.00, -0.00, -1.00, 763.8, 347.0)">r</text><text xml:space="preserve" font-family="Lato-Regular" font-size="36.0" fill="#000000" transform="matrix(1.00, 0.00, -0.00, -1.00, 303.0, 34.0)">b</text><text xml:space="preserve" font-family="Lato-Regular" font-size="36.0" fill="#000000" transform="matrix(1.00, 0.00, -0.00, -1.00, 322.7, 34.0)">y</text><text xml:space="preserve" font-family="Lato-Regular" font-size="36.0" fill="#000000" transform="matrix(1.00, 0.00, -0.00, -1.00, 341.1, 34.0)"> </text><text xml:space="preserve" font-family="Lato-Regular" font-size="36.0" fill="#000000" transform="matrix(1.00, 0.00, -0.00, -1.00, 348.0, 34.0)">R</text><text xml:space="preserve" font-family="Lato-Regular" font-size="36.0" fill="#000000" transform="matrix(1.00, 0.00, -0.00, -1.00, 371.2, 34.0)">u</text><text xml:space="preserve" font-family="Lato-Regular" font-size="36.0" fill="#000000" transform="matrix(1.00, 0.00, -0.00, -1.00, 391.2, 34.0)">s</text><text xml:space="preserve" font-family="Lato-Regular" font-size="36.0" fill="#000000" transform="matrix(1.00, 0.00, -0.00, -1.00, 406.9, 34.0)">t</text><text xml:space="preserve" font-family="Lato-Regular" font-size="36.0" fill="#000000" transform="matrix(1.00, 0.00, -0.00, -1.00, 420.3, 34.0)">e</text><text xml:space="preserve" font-family="Lato-Regular" font-size="36.0" fill="#000000" transform="matrix(1.00, 0.00, -0.00, -1.00, 439.2, 34.0)">m</text><text xml:space="preserve" font-family="Lato-Regular" font-size="36.0" fill="#000000" transform="matrix(1.00, 0.00, -0.00, -1.00, 468.7, 34.0)"> </text><text xml:space="preserve" font-family="Lato-Regular" font-size="36.0" fill="#000000" transform="matrix(1.00, 0.00, -0.00, -1.00, 475.7, 34.0)">F</text><text xml:space="preserve" font-family="Lato-Regular" font-size="36.0" fill="#000000" transform="matrix(1.00, 0.00, -0.00, -1.00, 494.8, 34.0)">e</text><text xml:space="preserve" font-family="Lato-Regular" font-size="36.0" fill="#000000" transform="matrix(1.00, 0.00, -0.00, -1.00, 513.2, 34.0)">y</text><text xml:space="preserve" font-family="Lato-Regular" font-size="36.0" fill="#000000" transform="matrix(1.00, 0.00, -0.00, -1.00, 531.6, 34.0)">z</text><text xml:space="preserve" font-family="Lato-Regular" font-size="36.0" fill="#000000" transform="matrix(1.00, 0.00, -0.00, -1.00, 548.2, 34.0)">k</text><text xml:space="preserve" font-family="Lato-Regular" font-size="36.0" fill="#000000" transform="matrix(1.00, 0.00, -0.00, -1.00, 567.1, 34.0)">h</text><text xml:space="preserve" font-family="Lato-Regular" font-size="36.0" fill="#000000" transform="matrix(1.00, 0.00, -0.00, -1.00, 587.1, 34.0)">a</text><text xml:space="preserve" font-family="Lato-Regular" font-size="36.0" fill="#000000" transform="matrix(1.00, 0.00, -0.00, -1.00, 605.4, 34.0)">n</text><text xml:space="preserve" font-family="Lato-Regular" font-size="36.0" fill="#000000" transform="matrix(1.00, 0.00, -0.00, -1.00, 625.4, 34.0)">o</text><text xml:space="preserve" font-family="Lato-Regular" font-size="36.0" fill="#000000" transform="matrix(1.00, 0.00, -0.00, -1.00, 644.9, 34.0)">v</text><text xml:space="preserve" font-family="Lato-Regular" font-size="36.0" fill="#000000" transform="matrix(1.00, 0.00, -0.00, -1.00, 663.4, 34.0)"> </text><text xml:space="preserve" font-family="Lato-Regular" font-size="36.0" fill="#000000" transform="matrix(1.00, 0.00, -0.00, -1.00, 670.3, 34.0)">a</text><text xml:space="preserve" font-family="Lato-Regular" font-size="36.0" fill="#000000" transform="matrix(1.00, 0.00, -0.00, -1.00, 688.6, 34.0)">n</text><text xml:space="preserve" font-family="Lato-Regular" font-size="36.0" fill="#000000" transform="matrix(1.00, 0.00, -0.00, -1.00, 708.6, 34.0)">d</text><text xml:space="preserve" font-family="Lato-Regular" font-size="36.0" fill="#000000" transform="matrix(1.00, 0.00, -0.00, -1.00, 728.7, 34.0)"> </text><text xml:space="preserve" font-family="Lato-Regular" font-size="36.0" fill="#000000" transform="matrix(1.00, 0.00, -0.00, -1.00, 735.6, 34.0)">A</text><text xml:space="preserve" font-family="Lato-Regular" font-size="36.0" fill="#000000" transform="matrix(1.00, 0.00, -0.00, -1.00, 760.1, 34.0)">l</text><text xml:space="preserve" font-family="Lato-Regular" font-size="36.0" fill="#000000" transform="matrix(1.00, 0.00, -0.00, -1.00, 769.3, 34.0)">e</text><text xml:space="preserve" font-family="Lato-Regular" font-size="36.0" fill="#000000" transform="matrix(1.00, 0.00, -0.00, -1.00, 787.1, 34.0)">x</text><text xml:space="preserve" font-family="Lato-Regular" font-size="36.0" fill="#000000" transform="matrix(1.00, 0.00, -0.00, -1.00, 805.3, 34.0)"> </text><text xml:space="preserve" font-family="Lato-Regular" font-size="36.0" fill="#000000" transform="matrix(1.00, 0.00, -0.00, -1.00, 812.2, 34.0)">K</text><text xml:space="preserve" font-family="Lato-Regular" font-size="36.0" fill="#000000" transform="matrix(1.00, 0.00, -0.00, -1.00, 836.7, 34.0)">u</text><text xml:space="preserve" font-family="Lato-Regular" font-size="36.0" fill="#000000" transform="matrix(1.00, 0.00, -0.00, -1.00, 856.8, 34.0)">d</text><text xml:space="preserve" font-family="Lato-Regular" font-size="36.0" fill="#000000" transform="matrix(1.00, 0.00, -0.00, -1.00, 876.9, 34.0)">r</text><text xml:space="preserve" font-family="Lato-Regular" font-size="36.0" fill="#000000" transform="matrix(1.00, 0.00, -0.00, -1.00, 891.4, 34.0)">i</text><text xml:space="preserve" font-family="Lato-Regular" font-size="36.0" fill="#000000" transform="matrix(1.00, 0.00, -0.00, -1.00, 900.6, 34.0)">a</text><text xml:space="preserve" font-family="Lato-Regular" font-size="36.0" fill="#000000" transform="matrix(1.00, 0.00, -0.00, -1.00, 918.9, 34.0)">s</text><text xml:space="preserve" font-family="Lato-Regular" font-size="36.0" fill="#000000" transform="matrix(1.00, 0.00, -0.00, -1.00, 934.5, 34.0)">h</text><text xml:space="preserve" font-family="Lato-Regular" font-size="36.0" fill="#000000" transform="matrix(1.00, 0.00, -0.00, -1.00, 954.5, 34.0)">o</text><text xml:space="preserve" font-family="Lato-Regular" font-size="36.0" fill="#000000" transform="matrix(1.00, 0.00, -0.00, -1.00, 974.0, 34.0)">v</text><text xml:space="preserve" font-family="Lato-Regular" font-size="36.0" fill="#000000" transform="matrix(1.00, 0.00, -0.00, -1.00, 992.5, 34.0)">a</text></g></svg>