<?xml version="1.0" encoding="UTF-8" standalone="no"?><svg xmlns="http://www.w3.org/2000/svg" xmlns:xlink="http://www.w3.org/1999/xlink" clip-rule="evenodd" stroke-miterlimit="4.00" viewBox="0 0 1024 768"><desc>SVG generated by Keynote</desc><defs></defs><g transform="matrix(1.00, 0.00, -0.00, -1.00, 0.0, 768.0)"><path d="M 0.0 768.0 L 1024.0 768.0 L 1024.0 0.0 L 0.0 0.0 Z M 0.0 768.0 " fill="#FEFFFF"></path><path d="M 161.0 716.9 L 1026.1 716.9 L 1026.1 616.9 L 161.0 616.9 Z M 161.0 716.9 " fill="#88B04B"></path><text xml:space="preserve" font-family="BebasNeue" font-size="73.6" fill="#000000" transform="matrix(1.00, 0.00, -0.00, -1.00, 186.0, 639.0)">H</text><text xml:space="preserve" font-family="BebasNeue" font-size="73.6" fill="#000000" transform="matrix(1.00, 0.00, -0.00, -1.00, 217.4, 639.0)">o</text><text xml:space="preserve" font-family="BebasNeue" font-size="73.6" fill="#000000" transform="matrix(1.00, 0.00, -0.00, -1.00, 246.6, 639.0)">w</text><text xml:space="preserve" font-family="BebasNeue" font-size="73.6" fill="#000000" transform="matrix(1.00, 0.00, -0.00, -1.00, 288.0, 639.0)"> </text><text xml:space="preserve" font-family="BebasNeue" font-size="73.6" fill="#000000" transform="matrix(1.00, 0.00, -0.00, -1.00, 299.4, 639.0)">t</text><text xml:space="preserve" font-family="BebasNeue" font-size="73.6" fill="#000000" transform="matrix(1.00, 0.00, -0.00, -1.00, 325.6, 639.0)">o</text><text xml:space="preserve" font-family="BebasNeue" font-size="73.6" fill="#000000" transform="matrix(1.00, 0.00, -0.00, -1.00, 354.8, 639.0)"> </text><text xml:space="preserve" font-family="BebasNeue" font-size="73.6" fill="#000000" transform="matrix(1.00, 0.00, -0.00, -1.00, 366.2, 639.0)">a</text><text xml:space="preserve" font-family="BebasNeue" font-size="73.6" fill="#000000" transform="matrix(1.00, 0.00, -0.00, -1.00, 396.1, 639.0)">d</text><text xml:space="preserve" font-family="BebasNeue" font-size="73.6" fill="#000000" transform="matrix(1.00, 0.00, -0.00, -1.00, 426.2, 639.0)">j</text><text xml:space="preserve" font-family="BebasNeue" font-size="73.6" fill="#000000" transform="matrix(1.00, 0.00, -0.00, -1.00, 445.0, 639.0)">u</text><text xml:space="preserve" font-family="BebasNeue" font-size="73.6" fill="#000000" transform="matrix(1.00, 0.00, -0.00, -1.00, 474.3, 639.0)">s</text><text xml:space="preserve" font-family="BebasNeue" font-size="73.6" fill="#000000" transform="matrix(1.00, 0.00, -0.00, -1.00, 501.8, 639.0)">t</text><text xml:space="preserve" font-family="BebasNeue" font-size="73.6" fill="#000000" transform="matrix(1.00, 0.00, -0.00, -1.00, 528.0, 639.0)"> </text><text xml:space="preserve" font-family="BebasNeue" font-size="73.6" fill="#000000" transform="matrix(1.00, 0.00, -0.00, -1.00, 539.4, 639.0)">h</text><text xml:space="preserve" font-family="BebasNeue" font-size="73.6" fill="#000000" transform="matrix(1.00, 0.00, -0.00, -1.00, 570.9, 639.0)">a</text><text xml:space="preserve" font-family="BebasNeue" font-size="73.6" fill="#000000" transform="matrix(1.00, 0.00, -0.00, -1.00, 600.8, 639.0)">b</text><text xml:space="preserve" font-family="BebasNeue" font-size="73.6" fill="#000000" transform="matrix(1.00, 0.00, -0.00, -1.00, 630.7, 639.0)">i</text><text xml:space="preserve" font-family="BebasNeue" font-size="73.6" fill="#000000" transform="matrix(1.00, 0.00, -0.00, -1.00, 644.7, 639.0)">t</text><text xml:space="preserve" font-family="BebasNeue" font-size="73.6" fill="#000000" transform="matrix(1.00, 0.00, -0.00, -1.00, 670.9, 639.0)">s</text><text xml:space="preserve" font-family="BebasNeue" font-size="73.6" fill="#000000" transform="matrix(1.00, 0.00, -0.00, -1.00, 698.4, 639.0)"> </text><text xml:space="preserve" font-family="BebasNeue" font-size="73.6" fill="#000000" transform="matrix(1.00, 0.00, -0.00, -1.00, 709.8, 639.0)">t</text><text xml:space="preserve" font-family="BebasNeue" font-size="73.6" fill="#000000" transform="matrix(1.00, 0.00, -0.00, -1.00, 736.0, 639.0)">o</text><text xml:space="preserve" font-family="BebasNeue" font-size="73.6" fill="#000000" transform="matrix(1.00, 0.00, -0.00, -1.00, 765.2, 639.0)"> </text><text xml:space="preserve" font-family="BebasNeue" font-size="73.6" fill="#000000" transform="matrix(1.00, 0.00, -0.00, -1.00, 776.6, 639.0)">y</text><text xml:space="preserve" font-family="BebasNeue" font-size="73.6" fill="#000000" transform="matrix(1.00, 0.00, -0.00, -1.00, 804.6, 639.0)">o</text><text xml:space="preserve" font-family="BebasNeue" font-size="73.6" fill="#000000" transform="matrix(1.00, 0.00, -0.00, -1.00, 833.8, 639.0)">u</text><text xml:space="preserve" font-family="BebasNeue" font-size="73.6" fill="#000000" transform="matrix(1.00, 0.00, -0.00, -1.00, 863.0, 639.0)">r</text><text xml:space="preserve" font-family="BebasNeue" font-size="73.6" fill="#000000" transform="matrix(1.00, 0.00, -0.00, -1.00, 892.6, 639.0)"> </text><text xml:space="preserve" font-family="BebasNeue" font-size="73.6" fill="#000000" transform="matrix(1.00, 0.00, -0.00, -1.00, 904.0, 639.0)">l</text><text xml:space="preserve" font-family="BebasNeue" font-size="73.6" fill="#000000" transform="matrix(1.00, 0.00, -0.00, -1.00, 929.0, 639.0)">i</text><text xml:space="preserve" font-family="BebasNeue" font-size="73.6" fill="#000000" transform="matrix(1.00, 0.00, -0.00, -1.00, 943.0, 639.0)">f</text><text xml:space="preserve" font-family="BebasNeue" font-size="73.6" fill="#000000" transform="matrix(1.00, 0.00, -0.00, -1.00, 968.3, 639.0)">e</text><text xml:space="preserve" font-family="Lato-Regular" font-size="56.0" fill="#000000" transform="matrix(1.00, 0.00, -0.00, -1.00, 113.3, 466.0)">1</text><text xml:space="preserve" font-family="Lato-Regular" font-size="56.0" fill="#000000" transform="matrix(1.00, 0.00, -0.00, -1.00, 145.7, 466.0)">.</text><text xml:space="preserve" font-family="Lato-Regular" font-size="56.0" fill="#000000" transform="matrix(1.00, 0.00, -0.00, -1.00, 191.0, 466.0)">L</text><text xml:space="preserve" font-family="Lato-Regular" font-size="56.0" fill="#000000" transform="matrix(1.00, 0.00, -0.00, -1.00, 218.8, 466.0)">o</text><text xml:space="preserve" font-family="Lato-Regular" font-size="56.0" fill="#000000" transform="matrix(1.00, 0.00, -0.00, -1.00, 249.9, 466.0)">o</text><text xml:space="preserve" font-family="Lato-Regular" font-size="56.0" fill="#000000" transform="matrix(1.00, 0.00, -0.00, -1.00, 281.0, 466.0)">k</text><text xml:space="preserve" font-family="Lato-Regular" font-size="56.0" fill="#000000" transform="matrix(1.00, 0.00, -0.00, -1.00, 310.4, 466.0)"> </text><text xml:space="preserve" font-family="Lato-Regular" font-size="56.0" fill="#000000" transform="matrix(1.00, 0.00, -0.00, -1.00, 321.2, 466.0)">a</text><text xml:space="preserve" font-family="Lato-Regular" font-size="56.0" fill="#000000" transform="matrix(1.00, 0.00, -0.00, -1.00, 349.6, 466.0)">t</text><text xml:space="preserve" font-family="Lato-Regular" font-size="56.0" fill="#000000" transform="matrix(1.00, 0.00, -0.00, -1.00, 370.5, 466.0)"> </text><text xml:space="preserve" font-family="Lato-Regular" font-size="56.0" fill="#000000" transform="matrix(1.00, 0.00, -0.00, -1.00, 381.3, 466.0)">y</text><text xml:space="preserve" font-family="Lato-Regular" font-size="56.0" fill="#000000" transform="matrix(1.00, 0.00, -0.00, -1.00, 409.2, 466.0)">o</text><text xml:space="preserve" font-family="Lato-Regular" font-size="56.0" fill="#000000" transform="matrix(1.00, 0.00, -0.00, -1.00, 440.4, 466.0)">u</text><text xml:space="preserve" font-family="Lato-Regular" font-size="56.0" fill="#000000" transform="matrix(1.00, 0.00, -0.00, -1.00, 471.5, 466.0)">r</text><text xml:space="preserve" font-family="Lato-Regular" font-size="56.0" fill="#000000" transform="matrix(1.00, 0.00, -0.00, -1.00, 494.1, 466.0)"> </text><text xml:space="preserve" font-family="Lato-Regular" font-size="56.0" fill="#000000" transform="matrix(1.00, 0.00, -0.00, -1.00, 504.9, 466.0)">p</text><text xml:space="preserve" font-family="Lato-Regular" font-size="56.0" fill="#000000" transform="matrix(1.00, 0.00, -0.00, -1.00, 535.8, 466.0)">r</text><text xml:space="preserve" font-family="Lato-Regular" font-size="56.0" fill="#000000" transform="matrix(1.00, 0.00, -0.00, -1.00, 558.4, 466.0)">e</text><text xml:space="preserve" font-family="Lato-Regular" font-size="56.0" fill="#000000" transform="matrix(1.00, 0.00, -0.00, -1.00, 587.0, 466.0)">v</text><text xml:space="preserve" font-family="Lato-Regular" font-size="56.0" fill="#000000" transform="matrix(1.00, 0.00, -0.00, -1.00, 615.6, 466.0)">i</text><text xml:space="preserve" font-family="Lato-Regular" font-size="56.0" fill="#000000" transform="matrix(1.00, 0.00, -0.00, -1.00, 630.0, 466.0)">o</text><text xml:space="preserve" font-family="Lato-Regular" font-size="56.0" fill="#000000" transform="matrix(1.00, 0.00, -0.00, -1.00, 661.1, 466.0)">u</text><text xml:space="preserve" font-family="Lato-Regular" font-size="56.0" fill="#000000" transform="matrix(1.00, 0.00, -0.00, -1.00, 692.3, 466.0)">s</text><text xml:space="preserve" font-family="Lato-Regular" font-size="56.0" fill="#000000" transform="matrix(1.00, 0.00, -0.00, -1.00, 716.6, 466.0)"> </text><text xml:space="preserve" font-family="Lato-Regular" font-size="56.0" fill="#000000" transform="matrix(1.00, 0.00, -0.00, -1.00, 727.4, 466.0)">a</text><text xml:space="preserve" font-family="Lato-Regular" font-size="56.0" fill="#000000" transform="matrix(1.00, 0.00, -0.00, -1.00, 755.8, 466.0)">c</text><text xml:space="preserve" font-family="Lato-Regular" font-size="56.0" fill="#000000" transform="matrix(1.00, 0.00, -0.00, -1.00, 781.9, 466.0)">t</text><text xml:space="preserve" font-family="Lato-Regular" font-size="56.0" fill="#000000" transform="matrix(1.00, 0.00, -0.00, -1.00, 802.8, 466.0)">i</text><text xml:space="preserve" font-family="Lato-Regular" font-size="56.0" fill="#000000" transform="matrix(1.00, 0.00, -0.00, -1.00, 817.1, 466.0)">v</text><text xml:space="preserve" font-family="Lato-Regular" font-size="56.0" fill="#000000" transform="matrix(1.00, 0.00, -0.00, -1.00, 845.8, 466.0)">i</text><text xml:space="preserve" font-family="Lato-Regular" font-size="56.0" fill="#000000" transform="matrix(1.00, 0.00, -0.00, -1.00, 860.1, 466.0)">t</text><text xml:space="preserve" font-family="Lato-Regular" font-size="56.0" fill="#000000" transform="matrix(1.00, 0.00, -0.00, -1.00, 881.0, 466.0)">y</text><text xml:space="preserve" font-family="Lato-Regular" font-size="56.0" fill="#000000" transform="matrix(1.00, 0.00, -0.00, -1.00, 909.7, 466.0)"> </text><text xml:space="preserve" font-family="Lato-Regular" font-size="56.0" fill="#000000" transform="matrix(1.00, 0.00, -0.00, -1.00, 113.3, 332.0)">2</text><text xml:space="preserve" font-family="Lato-Regular" font-size="56.0" fill="#000000" transform="matrix(1.00, 0.00, -0.00, -1.00, 145.7, 332.0)">.</text><text xml:space="preserve" font-family="Lato-Regular" font-size="56.0" fill="#000000" transform="matrix(1.00, 0.00, -0.00, -1.00, 191.0, 332.0)">F</text><text xml:space="preserve" font-family="Lato-Regular" font-size="56.0" fill="#000000" transform="matrix(1.00, 0.00, -0.00, -1.00, 222.7, 332.0)">i</text><text xml:space="preserve" font-family="Lato-Regular" font-size="56.0" fill="#000000" transform="matrix(1.00, 0.00, -0.00, -1.00, 237.0, 332.0)">n</text><text xml:space="preserve" font-family="Lato-Regular" font-size="56.0" fill="#000000" transform="matrix(1.00, 0.00, -0.00, -1.00, 268.2, 332.0)">d</text><text xml:space="preserve" font-family="Lato-Regular" font-size="56.0" fill="#000000" transform="matrix(1.00, 0.00, -0.00, -1.00, 299.5, 332.0)"> </text><text xml:space="preserve" font-family="Lato-Regular" font-size="56.0" fill="#000000" transform="matrix(1.00, 0.00, -0.00, -1.00, 310.3, 332.0)">f</text><text xml:space="preserve" font-family="Lato-Regular" font-size="56.0" fill="#000000" transform="matrix(1.00, 0.00, -0.00, -1.00, 329.2, 332.0)">r</text><text xml:space="preserve" font-family="Lato-Regular" font-size="56.0" fill="#000000" transform="matrix(1.00, 0.00, -0.00, -1.00, 351.7, 332.0)">e</text><text xml:space="preserve" font-family="Lato-Regular" font-size="56.0" fill="#000000" transform="matrix(1.00, 0.00, -0.00, -1.00, 381.1, 332.0)">e</text><text xml:space="preserve" font-family="Lato-Regular" font-size="56.0" fill="#000000" transform="matrix(1.00, 0.00, -0.00, -1.00, 410.4, 332.0)"> </text><text xml:space="preserve" font-family="Lato-Regular" font-size="56.0" fill="#000000" transform="matrix(1.00, 0.00, -0.00, -1.00, 421.2, 332.0)">t</text><text xml:space="preserve" font-family="Lato-Regular" font-size="56.0" fill="#000000" transform="matrix(1.00, 0.00, -0.00, -1.00, 442.1, 332.0)">i</text><text xml:space="preserve" font-family="Lato-Regular" font-size="56.0" fill="#000000" transform="matrix(1.00, 0.00, -0.00, -1.00, 456.4, 332.0)">m</text><text xml:space="preserve" font-family="Lato-Regular" font-size="56.0" fill="#000000" transform="matrix(1.00, 0.00, -0.00, -1.00, 502.4, 332.0)">e</text><text xml:space="preserve" font-family="Lato-Regular" font-size="56.0" fill="#000000" transform="matrix(1.00, 0.00, -0.00, -1.00, 531.8, 332.0)"> </text><g><clipPath id="clip-42"><path d="M 309.3 325.4 L 410.4 325.4 L 410.4 330.7 L 309.3 330.7 Z M 309.3 325.4 "></path></clipPath><g clip-path="url(#clip-42)"><path d="M 201.1 197.0 L 301.2 197.0 " fill="none" stroke="#000000" stroke-width="3.36" stroke-miterlimit="0.00" transform="matrix(1.00, 0.00, 0.00, -1.00, 109.3, 525.0)"></path></g></g><text xml:space="preserve" font-family="Lato-Regular" font-size="56.0" fill="#000000" transform="matrix(1.00, 0.00, -0.00, -1.00, 113.3, 198.0)">3</text><text xml:space="preserve" font-family="Lato-Regular" font-size="56.0" fill="#000000" transform="matrix(1.00, 0.00, -0.00, -1.00, 145.7, 198.0)">.</text><text xml:space="preserve" font-family="Lato-Regular" font-size="56.0" fill="#000000" transform="matrix(1.00, 0.00, -0.00, -1.00, 191.0, 198.0)">W</text><text xml:space="preserve" font-family="Lato-Regular" font-size="56.0" fill="#000000" transform="matrix(1.00, 0.00, -0.00, -1.00, 247.2, 198.0)">e</text><text xml:space="preserve" font-family="Lato-Regular" font-size="56.0" fill="#000000" transform="matrix(1.00, 0.00, -0.00, -1.00, 276.5, 198.0)">e</text><text xml:space="preserve" font-family="Lato-Regular" font-size="56.0" fill="#000000" transform="matrix(1.00, 0.00, -0.00, -1.00, 305.9, 198.0)">k</text><text xml:space="preserve" font-family="Lato-Regular" font-size="56.0" fill="#000000" transform="matrix(1.00, 0.00, -0.00, -1.00, 333.5, 198.0)">e</text><text xml:space="preserve" font-family="Lato-Regular" font-size="56.0" fill="#000000" transform="matrix(1.00, 0.00, -0.00, -1.00, 362.9, 198.0)">n</text><text xml:space="preserve" font-family="Lato-Regular" font-size="56.0" fill="#000000" transform="matrix(1.00, 0.00, -0.00, -1.00, 394.0, 198.0)">d</text><text xml:space="preserve" font-family="Lato-Regular" font-size="56.0" fill="#000000" transform="matrix(1.00, 0.00, -0.00, -1.00, 425.3, 198.0)">s</text><text xml:space="preserve" font-family="Lato-Regular" font-size="56.0" fill="#000000" transform="matrix(1.00, 0.00, -0.00, -1.00, 449.6, 198.0)"> </text><text xml:space="preserve" font-family="Lato-Regular" font-size="56.0" fill="#000000" transform="matrix(1.00, 0.00, -0.00, -1.00, 460.4, 198.0)">a</text><text xml:space="preserve" font-family="Lato-Regular" font-size="56.0" fill="#000000" transform="matrix(1.00, 0.00, -0.00, -1.00, 488.8, 198.0)">r</text><text xml:space="preserve" font-family="Lato-Regular" font-size="56.0" fill="#000000" transform="matrix(1.00, 0.00, -0.00, -1.00, 511.4, 198.0)">e</text><text xml:space="preserve" font-family="Lato-Regular" font-size="56.0" fill="#000000" transform="matrix(1.00, 0.00, -0.00, -1.00, 540.7, 198.0)"> </text><text xml:space="preserve" font-family="Lato-Regular" font-size="56.0" fill="#000000" transform="matrix(1.00, 0.00, -0.00, -1.00, 551.5, 198.0)">d</text><text xml:space="preserve" font-family="Lato-Regular" font-size="56.0" fill="#000000" transform="matrix(1.00, 0.00, -0.00, -1.00, 582.8, 198.0)">i</text><text xml:space="preserve" font-family="Lato-Regular" font-size="56.0" fill="#000000" transform="matrix(1.00, 0.00, -0.00, -1.00, 597.2, 198.0)">f</text><text xml:space="preserve" font-family="Lato-Regular" font-size="56.0" fill="#000000" transform="matrix(1.00, 0.00, -0.00, -1.00, 616.0, 198.0)">f</text><text xml:space="preserve" font-family="Lato-Regular" font-size="56.0" fill="#000000" transform="matrix(1.00, 0.00, -0.00, -1.00, 634.9, 198.0)">e</text><text xml:space="preserve" font-family="Lato-Regular" font-size="56.0" fill="#000000" transform="matrix(1.00, 0.00, -0.00, -1.00, 664.3, 198.0)">r</text><text xml:space="preserve" font-family="Lato-Regular" font-size="56.0" fill="#000000" transform="matrix(1.00, 0.00, -0.00, -1.00, 686.8, 198.0)">e</text><text xml:space="preserve" font-family="Lato-Regular" font-size="56.0" fill="#000000" transform="matrix(1.00, 0.00, -0.00, -1.00, 716.2, 198.0)">n</text><text xml:space="preserve" font-family="Lato-Regular" font-size="56.0" fill="#000000" transform="matrix(1.00, 0.00, -0.00, -1.00, 747.3, 198.0)">t</text></g></svg>